HIERARCHY
ROOT Root
{
  OFFSET 0.0 0.0 0.0
  CHANNELS 6 Xposition Yposition Zposition Zrotation Yrotation Xrotation
  JOINT Hips
  {
    OFFSET 0.0 100.0 0.0
    CHANNELS 6 Xposition Yposition Zposition Zrotation Yrotation Xrotation
    JOINT Spine1
    {
      OFFSET -0.013727 5.003763 -0.053727
      CHANNELS 3 Zrotation Yrotation Xrotation
      JOINT Spine2
      {
        OFFSET -0.0 7.125301 -0.029825
        CHANNELS 3 Zrotation Yrotation Xrotation
        JOINT Chest
        {
          OFFSET -1e-06 7.550063 -0.815971
          CHANNELS 3 Zrotation Yrotation Xrotation
          JOINT Neck1
          {
            OFFSET -0.181677 26.311295 -0.553348
            CHANNELS 3 Zrotation Yrotation Xrotation
            JOINT Neck2
            {
              OFFSET -3e-06 7.709397 2.302585
              CHANNELS 3 Zrotation Yrotation Xrotation
              JOINT Head
              {
                OFFSET -5e-06 6.128916 1.953709
                CHANNELS 3 Zrotation Yrotation Xrotation
                JOINT HeadEnd
                {
                  OFFSET 0.003598 16.065403 -1.835379
                  CHANNELS 3 Zrotation Yrotation Xrotation
                }
                JOINT Jaw
                {
                  OFFSET 0.002637 0.475592 3.094941
                  CHANNELS 3 Zrotation Yrotation Xrotation
                }
                JOINT LeftEye
                {
                  OFFSET 3.206381 5.380205 7.586883
                  CHANNELS 3 Zrotation Yrotation Xrotation
                }
                JOINT RightEye
                {
                  OFFSET -3.22244 5.361869 7.558234
                  CHANNELS 3 Zrotation Yrotation Xrotation
                }
              }
            }
          }
          JOINT LeftShoulder
          {
            OFFSET 1.621652 23.237164 5.113413
            CHANNELS 3 Zrotation Yrotation Xrotation
            JOINT LeftArm
            {
              OFFSET 14.919846 2e-06 -5.502326
              CHANNELS 3 Zrotation Yrotation Xrotation
              JOINT LeftForeArm
              {
                OFFSET 28.739307 0.0 -0.002588
                CHANNELS 3 Zrotation Yrotation Xrotation
                JOINT LeftHand
                {
                  OFFSET 27.093981 -1e-06 0.002609
                  CHANNELS 3 Zrotation Yrotation Xrotation
                  JOINT LeftHandThumb1
                  {
                    OFFSET 2.276482 -1.392045 3.191413
                    CHANNELS 3 Zrotation Yrotation Xrotation
                    JOINT LeftHandThumb2
                    {
                      OFFSET 4.012836 -1.828127 1.641654
                      CHANNELS 3 Zrotation Yrotation Xrotation
                      JOINT LeftHandThumb3
                      {
                        OFFSET 2.798515 0.0 -3e-06
                        CHANNELS 3 Zrotation Yrotation Xrotation
                        JOINT LeftHandThumbEnd
                        {
                          OFFSET 3.180793 -4e-06 4e-06
                          CHANNELS 3 Zrotation Yrotation Xrotation
                        }
                      }
                    }
                  }
                  JOINT LeftHandIndex1
                  {
                    OFFSET 3.247555 -0.531998 2.296169
                    CHANNELS 3 Zrotation Yrotation Xrotation
                    JOINT LeftHandIndex2
                    {
                      OFFSET 6.364578 0.01206 0.1786
                      CHANNELS 3 Zrotation Yrotation Xrotation
                      JOINT LeftHandIndex3
                      {
                        OFFSET 3.662364 0.0 0.0
                        CHANNELS 3 Zrotation Yrotation Xrotation
                        JOINT LeftHandIndex4
                        {
                          OFFSET 2.329242 4e-06 4e-06
                          CHANNELS 3 Zrotation Yrotation Xrotation
                          JOINT LeftHandIndexEnd
                          {
                            OFFSET 2.759615 -0.180537 -0.113024
                            CHANNELS 3 Zrotation Yrotation Xrotation
                          }
                        }
                      }
                    }
                  }
                  JOINT LeftHandMiddle1
                  {
                    OFFSET 3.163495 0.240981 1.000332
                    CHANNELS 3 Zrotation Yrotation Xrotation
                    JOINT LeftHandMiddle2
                    {
                      OFFSET 6.19078 -0.259278 -1.002548
                      CHANNELS 3 Zrotation Yrotation Xrotation
                      JOINT LeftHandMiddle3
                      {
                        OFFSET 4.35652 -4e-06 -1e-06
                        CHANNELS 3 Zrotation Yrotation Xrotation
                        JOINT LeftHandMiddle4
                        {
                          OFFSET 2.996877 -8e-06 0.0
                          CHANNELS 3 Zrotation Yrotation Xrotation
                          JOINT LeftHandMiddleEnd
                          {
                            OFFSET 2.304287 -0.294569 -0.031741
                            CHANNELS 3 Zrotation Yrotation Xrotation
                          }
                        }
                      }
                    }
                  }
                  JOINT LeftHandRing1
                  {
                    OFFSET 2.882643 -0.053652 -0.322543
                    CHANNELS 3 Zrotation Yrotation Xrotation
                    JOINT LeftHandRing2
                    {
                      OFFSET 5.854541 -0.486202 -1.373841
                      CHANNELS 3 Zrotation Yrotation Xrotation
                      JOINT LeftHandRing3
                      {
                        OFFSET 4.350578 0.0 3e-06
                        CHANNELS 3 Zrotation Yrotation Xrotation
                        JOINT LeftHandRing4
                        {
                          OFFSET 2.651321 7e-06 2e-06
                          CHANNELS 3 Zrotation Yrotation Xrotation
                          JOINT LeftHandRingEnd
                          {
                            OFFSET 1.936105 0.077687 -7.1e-05
                            CHANNELS 3 Zrotation Yrotation Xrotation
                          }
                        }
                      }
                    }
                  }
                  JOINT LeftHandPinky1
                  {
                    OFFSET 2.8655 -0.310005 -1.600378
                    CHANNELS 3 Zrotation Yrotation Xrotation
                    JOINT LeftHandPinky2
                    {
                      OFFSET 5.087849 -1.331141 -1.77123
                      CHANNELS 3 Zrotation Yrotation Xrotation
                      JOINT LeftHandPinky3
                      {
                        OFFSET 3.070974 4e-06 0.0
                        CHANNELS 3 Zrotation Yrotation Xrotation
                        JOINT LeftHandPinky4
                        {
                          OFFSET 1.549672 0.0 1e-06
                          CHANNELS 3 Zrotation Yrotation Xrotation
                          JOINT LeftHandPinkyEnd
                          {
                            OFFSET 1.944893 -0.157802 0.057219
                            CHANNELS 3 Zrotation Yrotation Xrotation
                          }
                        }
                      }
                    }
                  }
                }
              }
            }
          }
          JOINT RightShoulder
          {
            OFFSET -1.380118 23.180309 5.214158
            CHANNELS 3 Zrotation Yrotation Xrotation
            JOINT RightArm
            {
              OFFSET -15.037196 1.2e-05 -5.545604
              CHANNELS 3 Zrotation Yrotation Xrotation
              JOINT RightForeArm
              {
                OFFSET -28.736639 2e-06 -0.002597
                CHANNELS 3 Zrotation Yrotation Xrotation
                JOINT RightHand
                {
                  OFFSET -27.133619 -0.0 0.002613
                  CHANNELS 3 Zrotation Yrotation Xrotation
                  JOINT RightHandThumb1
                  {
                    OFFSET -2.274032 -1.383988 3.163127
                    CHANNELS 3 Zrotation Yrotation Xrotation
                    JOINT RightHandThumb2
                    {
                      OFFSET -4.011429 -1.827466 1.640914
                      CHANNELS 3 Zrotation Yrotation Xrotation
                      JOINT RightHandThumb3
                      {
                        OFFSET -2.794935 -4e-06 -3e-06
                        CHANNELS 3 Zrotation Yrotation Xrotation
                        JOINT RightHandThumbEnd
                        {
                          OFFSET -3.183852 4e-06 1e-06
                          CHANNELS 3 Zrotation Yrotation Xrotation
                        }
                      }
                    }
                  }
                  JOINT RightHandIndex1
                  {
                    OFFSET -3.253266 -0.520057 2.282866
                    CHANNELS 3 Zrotation Yrotation Xrotation
                    JOINT RightHandIndex2
                    {
                      OFFSET -6.341917 0.012471 0.178266
                      CHANNELS 3 Zrotation Yrotation Xrotation
                      JOINT RightHandIndex3
                      {
                        OFFSET -3.654871 -8e-06 -0.0
                        CHANNELS 3 Zrotation Yrotation Xrotation
                        JOINT RightHandIndex4
                        {
                          OFFSET -2.327586 0.0 1e-06
                          CHANNELS 3 Zrotation Yrotation Xrotation
                          JOINT RightHandIndexEnd
                          {
                            OFFSET -2.76179 -0.180656 -0.113078
                            CHANNELS 3 Zrotation Yrotation Xrotation
                          }
                        }
                      }
                    }
                  }
                  JOINT RightHandMiddle1
                  {
                    OFFSET -3.168106 0.246593 1.00103
                    CHANNELS 3 Zrotation Yrotation Xrotation
                    JOINT RightHandMiddle2
                    {
                      OFFSET -6.180828 -0.258836 -1.000895
                      CHANNELS 3 Zrotation Yrotation Xrotation
                      JOINT RightHandMiddle3
                      {
                        OFFSET -4.348901 0.0 -0.0
                        CHANNELS 3 Zrotation Yrotation Xrotation
                        JOINT RightHandMiddle4
                        {
                          OFFSET -3.00024 -4e-06 -2e-06
                          CHANNELS 3 Zrotation Yrotation Xrotation
                          JOINT RightHandMiddleEnd
                          {
                            OFFSET -2.30252 -0.29437 -0.031706
                            CHANNELS 3 Zrotation Yrotation Xrotation
                          }
                        }
                      }
                    }
                  }
                  JOINT RightHandRing1
                  {
                    OFFSET -2.88569 -0.067952 -0.308858
                    CHANNELS 3 Zrotation Yrotation Xrotation
                    JOINT RightHandRing2
                    {
                      OFFSET -5.854198 -0.48613 -1.373731
                      CHANNELS 3 Zrotation Yrotation Xrotation
                      JOINT RightHandRing3
                      {
                        OFFSET -4.33881 -4e-06 -0.0
                        CHANNELS 3 Zrotation Yrotation Xrotation
                        JOINT RightHandRing4
                        {
                          OFFSET -2.654903 -4e-06 4e-06
                          CHANNELS 3 Zrotation Yrotation Xrotation
                          JOINT RightHandRingEnd
                          {
                            OFFSET -1.933568 0.077527 -5.2e-05
                            CHANNELS 3 Zrotation Yrotation Xrotation
                          }
                        }
                      }
                    }
                  }
                  JOINT RightHandPinky1
                  {
                    OFFSET -2.866425 -0.342796 -1.584145
                    CHANNELS 3 Zrotation Yrotation Xrotation
                    JOINT RightHandPinky2
                    {
                      OFFSET -5.091371 -1.332055 -1.772385
                      CHANNELS 3 Zrotation Yrotation Xrotation
                      JOINT RightHandPinky3
                      {
                        OFFSET -3.062664 -4e-06 1e-06
                        CHANNELS 3 Zrotation Yrotation Xrotation
                        JOINT RightHandPinky4
                        {
                          OFFSET -1.546529 4e-06 -2e-06
                          CHANNELS 3 Zrotation Yrotation Xrotation
                          JOINT RightHandPinkyEnd
                          {
                            OFFSET -1.945119 -0.157718 0.057211
                            CHANNELS 3 Zrotation Yrotation Xrotation
                          }
                        }
                      }
                    }
                  }
                }
              }
            }
          }
        }
      }
    }
    JOINT LeftLeg
    {
      OFFSET 10.043214 -8.434526 2.595655
      CHANNELS 3 Zrotation Yrotation Xrotation
      JOINT LeftShin
      {
        OFFSET -1e-06 -43.221752 -0.802913
        CHANNELS 3 Zrotation Yrotation Xrotation
        JOINT LeftFoot
        {
          OFFSET 1e-06 -42.155094 -3.481523
          CHANNELS 3 Zrotation Yrotation Xrotation
          JOINT LeftToeBase
          {
            OFFSET 0.0 -5.059472 13.231529
            CHANNELS 3 Zrotation Yrotation Xrotation
            JOINT LeftToeEnd
            {
              OFFSET -0.009607 -1.647619 6.513017
              CHANNELS 3 Zrotation Yrotation Xrotation
            }
          }
        }
      }
    }
    JOINT RightLeg
    {
      OFFSET -10.047278 -8.29526 2.620317
      CHANNELS 3 Zrotation Yrotation Xrotation
      JOINT RightShin
      {
        OFFSET 1e-06 -43.362206 -0.805556
        CHANNELS 3 Zrotation Yrotation Xrotation
        JOINT RightFoot
        {
          OFFSET 2e-06 -42.117393 -3.478398
          CHANNELS 3 Zrotation Yrotation Xrotation
          JOINT RightToeBase
          {
            OFFSET -0.0 -5.079609 13.284196
            CHANNELS 3 Zrotation Yrotation Xrotation
            JOINT RightToeEnd
            {
              OFFSET 0.009532 -1.634378 6.460591
              CHANNELS 3 Zrotation Yrotation Xrotation
            }
          }
        }
      }
    }
  }
}
MOTION
Frames: 5
Frame Time: 0.03333333333333333
0.0 0.0 0.0 0.0 -0.0 0.0 -11.668404 93.048592 306.354004 4.628088 -9.084326 -1.158045 -1.165413 0.780468 -0.119325 -0.623493 3.915898 -5.230493 -2.830815 1.408726 11.543116 -2.442371 3.159679 0.308075 -0.845093 -1.335395 -3.611229 2.368388 -3.35743 -16.988716 7.7e-05 -2.2e-05 6e-06 0.025291 0.00391 0.041036 0.577618 -3.777189 -10.428893 -0.538977 3.772267 -10.47537 -23.865377 3.635637 13.999841 -59.802677 10.030746 -1.844872 -0.10464 -11.61856 0.083639 0.004563 6.699305 -13.111251 -5.88225 9.86115 0.703113 -10.936769 -0.360408 7.156476 -2e-06 8.77489 1.4e-05 -16.061792 18.016983 6.341313 -1.84404 2.498504 -2.507304 -10.163692 4.678985 4.621077 -20.976265 2.4e-05 2.3e-05 -21.226673 2.45177 -3.59408 1e-06 -5e-06 -2e-06 -1.362709 2.240849 -0.746349 -21.33507 0.584872 3.008317 -13.821375 1.7e-05 1.5e-05 -23.887697 -0.249033 -0.839534 -60.231342 2.42402 -0.754165 -0.294063 1.679754 0.833234 -14.218272 0.093143 1.300554 -34.212502 -0.287508 0.967202 -20.033485 0.964589 1.212875 -1e-06 -0.0 -2e-06 -3.440515 0.78834 0.501604 -15.928164 -3.167435 2.999712 -6.338902 6e-06 9e-06 -18.123829 3.648211 -4.905756 -1e-06 2e-06 -3e-06 15.653448 11.665361 17.552744 51.818016 23.558769 14.496049 0.093806 36.433311 0.363619 -9.372477 -0.966783 1.262713 2.243516 -5.254921 -3.179861 14.282709 -0.826802 6.952739 -6.1e-05 -12.690682 2.5e-05 16.206638 -17.889563 2.683973 1.665678 -1.955916 -2.878327 4.727812 -4.170593 4.993891 11.020593 4.9e-05 -2.2e-05 12.109168 -3.735668 -2.866858 -0.0 3e-06 -1e-06 1.29198 -1.928579 -1.498117 14.800213 0.567563 3.865571 14.242649 -1.341669 -6.660717 19.632217 0.144078 -0.64827 50.421329 -0.626894 -6.305947 0.35302 -1.511196 -0.031963 20.22291 3.684461 2.316591 18.787374 8e-05 0.0 10.751687 -0.479843 1.39794 2e-06 -0.0 -0.0 3.273834 0.30591 -0.580181 21.486917 11.83057 2.266104 8.16297 3.3e-05 -1e-06 18.399258 -3.798886 -4.940611 3e-06 -2e-06 -2e-06 -6.883283 4.247613 -31.886642 -0.008834 0.027132 12.1381 -1.37401 -1.161148 10.944381 1.791486 -1.962792 -4.923101 -0.0 0.0 -1e-06 -9.447572 -6.317698 26.443773 -0.05141 0.5267 17.15856 0.313964 7.278343 3.24426 -1.535562 0.703795 -29.102213 0.0 -0.0 -4e-06 
0.0 0.0 0.0 0.0 -0.0 0.0 -11.994642 93.739494 312.861328 6.495629 -7.080251 -1.7112 -1.973112 0.587519 0.131799 -1.015586 3.428101 -5.057762 -4.07185 1.140354 11.276654 -1.261407 2.769063 -0.142939 -1.197849 -1.889912 -3.592657 2.224067 -3.558403 -17.456619 7.7e-05 -2.2e-05 5e-06 0.050939 0.058888 0.053999 0.630368 -3.690917 -10.366642 -0.542847 3.792632 -10.406484 -21.189917 2.166468 14.486534 -61.734127 8.358617 -0.194684 -0.100368 -11.145733 0.074286 -0.980905 7.017991 -11.93475 -5.881942 9.861309 0.702343 -10.936887 -0.360624 7.156129 9e-06 8.774807 -1.2e-05 -16.120335 18.02206 6.058265 -1.844025 2.4985 -2.507265 -10.163514 4.678914 4.621099 -20.975842 -5.1e-05 -2.4e-05 -21.226076 2.451606 -3.594008 0.0 -7e-06 2e-06 -1.362654 2.240775 -0.746316 -21.33478 0.584897 3.008311 -13.821095 -3.5e-05 -7e-06 -23.8869 -0.249168 -0.839466 -59.70668 2.437722 -1.132279 -0.29399 1.679655 0.83326 -14.218154 0.093232 1.30058 -34.211735 -0.287645 0.967157 -20.033064 0.964489 1.21286 -1e-06 -2e-06 1e-06 -3.440277 0.788177 0.501665 -15.928192 -3.167273 2.999709 -6.33877 -1.1e-05 -2e-06 -18.123262 3.648123 -4.905672 -4e-06 0.0 -3e-06 16.073658 10.560429 17.610985 54.817348 21.391064 13.551209 -0.04373 34.506508 0.151039 -10.438681 0.241312 -0.364654 2.243548 -5.255086 -3.1803 14.283022 -0.82643 6.952374 5.2e-05 -12.690539 -2.5e-05 16.350212 -17.8102 2.594604 1.665655 -1.955932 -2.878279 4.727792 -4.17059 4.993931 11.020493 -4e-05 1.3e-05 12.109052 -3.73576 -2.866781 0.0 0.0 2e-06 1.291995 -1.928537 -1.498079 14.800047 0.56739 3.865639 14.242536 -1.341799 -6.66064 19.631912 0.143812 -0.648285 50.580399 -0.476617 -6.152195 0.35305 -1.511136 -0.031931 20.22267 3.684196 2.316666 18.787231 -6.8e-05 -4e-06 10.751619 -0.479896 1.397902 -1e-06 0.0 -3e-06 3.273799 0.305939 -0.580073 21.486679 11.830221 2.266168 8.162905 -2.7e-05 -1e-06 18.399071 -3.799057 -4.940606 2e-06 -1e-06 0.0 -9.131643 2.779671 -30.520988 -0.030295 0.122499 18.060244 -0.497064 -2.468209 10.300692 1.669227 -1.939422 -2.71451 0.0 0.0 -0.0 -11.556558 -6.568566 20.304394 -0.036708 0.743535 32.355221 1.761979 6.340578 16.850086 -1.303348 0.593587 -24.942316 0.0 -0.0 -0.0 
0.0 0.0 0.0 0.0 -0.0 0.0 -12.317319 94.515869 318.66922 8.177209 -5.910351 -2.6476 -2.80592 0.346803 0.867024 -1.346794 3.31936 -4.633233 -4.707857 0.680001 11.044256 -1.101884 2.722252 -0.281576 -1.179138 -2.24562 -3.618408 2.083313 -3.807897 -18.251385 7.7e-05 -2.2e-05 4e-06 0.060044 0.101218 0.092184 0.641947 -3.655546 -10.363859 -0.537503 3.844409 -10.373252 -19.169167 0.889527 14.703093 -62.830105 5.983617 2.518404 -0.298597 -12.295484 0.149465 -2.347973 7.182951 -10.737127 -5.882102 9.861041 0.703059 -10.936703 -0.360376 7.156494 4e-06 8.774921 2e-06 -16.005411 18.294226 6.130086 -1.844045 2.498509 -2.507308 -10.163677 4.678991 4.621044 -20.976238 -2.9e-05 -2.3e-05 -21.226646 2.451702 -3.594148 3e-06 -6e-06 -2e-06 -1.362702 2.240876 -0.746362 -21.335054 0.584821 3.008292 -13.82135 -1.7e-05 -8e-06 -23.88763 -0.249131 -0.839578 -60.035622 2.461271 -1.259625 -0.294048 1.679796 0.833219 -14.218276 0.093093 1.30055 -34.212425 -0.287603 0.967162 -20.033445 0.96453 1.212876 2e-06 -0.0 -1e-06 -3.440476 0.788387 0.50156 -15.928189 -3.167497 2.999742 -6.338884 -5e-06 -4e-06 -18.12377 3.64816 -4.905815 -9e-06 1e-06 0.0 16.100506 9.992248 17.789476 57.310806 20.454889 13.730755 -0.125139 30.437328 0.052847 -10.084445 -0.543417 -1.281638 2.243606 -5.254854 -3.179981 14.282913 -0.826627 6.952536 1.8e-05 -12.690659 -2.1e-05 16.5322 -17.635321 2.548145 1.665663 -1.955927 -2.878308 4.727809 -4.170618 4.993906 11.02056 -9e-06 1.4e-05 12.109141 -3.735777 -2.866827 -0.0 -0.0 -2e-06 1.291993 -1.9286 -1.498109 14.800142 0.567496 3.865634 14.242617 -1.341774 -6.660677 19.63212 0.143877 -0.648263 50.413967 -0.387886 -6.031301 0.353045 -1.511219 -0.03196 20.222811 3.684356 2.316678 18.787355 -2.3e-05 1.6e-05 10.751683 -0.479882 1.397935 1e-06 0.0 -1e-06 3.273849 0.305843 -0.580139 21.486801 11.830477 2.266213 8.162963 -1.1e-05 8e-06 18.399248 -3.799013 -4.94062 4e-06 -2e-06 -2e-06 -11.117846 2.284216 -26.955093 0.026767 0.284553 20.851379 0.102146 -3.577293 6.109787 1.657234 -1.932251 -2.375731 -0.0 0.0 -3e-06 -13.273174 -5.716877 12.904354 -0.014166 0.697804 46.694714 4.694061 6.198721 27.23274 -0.969205 0.856313 -6.635252 1e-06 -0.0 1e-06 
0.0 0.0 0.0 0.0 -0.0 0.0 -12.630677 95.66581 324.186035 9.501292 -5.740223 -3.493342 -3.506969 0.245461 1.42939 -1.615443 3.041622 -4.366978 -4.917952 0.347582 11.065306 -1.408938 2.98343 -0.127135 -1.112209 -2.203742 -3.595662 1.796497 -3.661777 -18.895473 7.7e-05 -2.2e-05 5e-06 0.061571 0.097965 0.12682 0.649344 -3.673398 -10.415127 -0.541999 3.859658 -10.403887 -18.650404 0.429453 14.532816 -62.261757 3.168884 4.886224 -0.312931 -14.584585 0.164728 -2.303778 6.559385 -10.335692 -5.882236 9.861305 0.70259 -10.936851 -0.360577 7.156201 1e-06 8.774821 -0.0 -16.162146 18.600636 6.14988 -1.844032 2.498502 -2.507273 -10.163625 4.678943 4.621115 -20.976112 7e-06 3.7e-05 -21.226448 2.451722 -3.593985 0.0 -6e-06 1e-06 -1.362687 2.240788 -0.746316 -21.334963 0.584923 3.00834 -13.821271 7e-06 2.2e-05 -23.887396 -0.249045 -0.839462 -60.618477 2.545518 -1.47238 -0.294034 1.679669 0.833262 -14.218224 0.093222 1.300588 -34.212234 -0.28753 0.967218 -20.03335 0.964566 1.212875 0.0 -0.0 -1e-06 -3.440425 0.788217 0.501676 -15.928176 -3.167297 2.999703 -6.338853 -0.0 1e-05 -18.123606 3.648183 -4.90567 -3e-06 0.0 -3e-06 16.666948 9.985324 18.104647 58.767925 20.196247 14.369338 -0.000672 25.251202 -0.007483 -9.761805 -1.644513 -1.556493 2.243505 -5.255064 -3.180233 14.282774 -0.826663 6.952523 -4e-05 -12.690621 1.2e-05 16.591379 -17.486176 2.46733 1.665672 -1.955915 -2.878299 4.727803 -4.170579 4.993915 11.02056 3.5e-05 -1.5e-05 12.109127 -3.735672 -2.866808 -0.0 -0.0 -1e-06 1.291978 -1.928545 -1.498084 14.800172 0.567511 3.865585 14.242617 -1.341692 -6.660668 19.63216 0.144028 -0.648252 50.303181 -0.297144 -5.958762 0.353024 -1.511148 -0.031932 20.222857 3.684376 2.316604 18.787336 6.8e-05 -1.3e-05 10.751671 -0.479838 1.397911 -0.0 -1e-06 1e-06 3.273808 0.305969 -0.580119 21.486877 11.830433 2.266111 8.162945 2.7e-05 -1.1e-05 18.399199 -3.798888 -4.940602 2e-06 -1e-06 -1e-06 -12.516339 2.230879 -21.751293 0.052652 0.276189 19.89208 0.59353 -3.614869 2.921193 1.629401 -1.980078 -2.186724 0.0 0.0 4e-06 -14.546883 -4.787824 5.265722 0.067723 0.491086 57.851257 3.511506 6.073125 21.022091 -1.034263 0.885634 -4.778614 0.0 -0.0 -2e-06 
0.0 0.0 0.0 0.0 -0.0 0.0 -12.950974 96.983833 329.556 9.46507 -6.085687 -4.351154 -3.488373 0.159458 1.951546 -1.610663 2.633425 -4.150659 -4.517084 0.044754 11.165602 -2.017951 3.366452 0.284533 -1.073558 -2.010499 -3.559999 1.339057 -3.080206 -18.951151 7.7e-05 -2.2e-05 6e-06 0.052533 0.062392 0.134498 0.644842 -3.719617 -10.445245 -0.554766 3.837784 -10.444843 -18.682146 0.288741 14.342407 -61.34156 -0.001347 5.163633 -0.206051 -17.507641 0.121599 -0.141761 5.360546 -10.248993 -5.881992 9.861218 0.70244 -10.936922 -0.360592 7.156117 -1.1e-05 8.774839 -1.9e-05 -16.372988 18.610781 6.0811 -1.844026 2.498505 -2.507269 -10.163534 4.678956 4.621103 -20.975872 -1.2e-05 -1.9e-05 -21.226109 2.451686 -3.594044 -5e-06 -6e-06 -1e-06 -1.362669 2.240828 -0.746316 -21.334797 0.584888 3.008328 -13.821112 -8e-06 -8e-06 -23.886934 -0.249099 -0.839509 -60.89225 2.456608 -1.426897 -0.29401 1.67973 0.833262 -14.218148 0.093184 1.300596 -34.211784 -0.287582 0.967148 -20.033094 0.964517 1.212845 3e-06 -0.0 0.0 -3.440323 0.78829 0.501664 -15.928165 -3.167372 2.999734 -6.338779 -1e-06 -2e-06 -18.123287 3.648192 -4.905693 -1e-06 0.0 -2e-06 17.012169 10.07386 18.511663 59.818714 19.811146 15.059927 0.138428 21.194517 -0.076213 -9.009576 -2.555129 -1.416913 2.243558 -5.254924 -3.179905 14.282896 -0.826683 6.952649 2.8e-05 -12.690671 1e-05 16.587225 -17.339617 2.407087 1.665668 -1.955925 -2.878312 4.727827 -4.170625 4.993899 11.02059 -2.2e-05 2e-06 12.109208 -3.73579 -2.866855 1e-06 -1e-06 3e-06 1.292015 -1.928603 -1.498109 14.800151 0.567492 3.865606 14.242658 -1.341775 -6.660712 19.632219 0.14387 -0.648325 50.293251 -0.1561 -5.829702 0.353068 -1.51122 -0.031955 20.222807 3.68436 2.316639 18.787397 -4.3e-05 -4e-06 10.751702 -0.479899 1.397923 0.0 1e-06 1e-06 3.27389 0.305828 -0.580141 21.486755 11.830499 2.266164 8.162974 -2.2e-05 -0.0 18.399303 -3.799047 -4.94068 3e-06 -1e-06 2e-06 -12.391255 2.392997 -15.582558 0.014243 0.139194 16.980915 1.118675 -3.348677 0.544933 1.619297 -2.02313 -2.035054 0.0 0.0 -0.0 -13.929295 -3.81408 -2.214432 0.104144 0.244266 64.262497 -0.152203 3.820333 12.791406 -1.18158 0.881861 -4.736398 1e-06 -0.0 -6e-06 
